Coordinates
version=1
nRows=24
nColumns=24
inDegrees=yes

Units are S.I. units (second, meters, Newtons, ...)
Angles are in degrees.

endheader
time	pelvis_tilt	pelvis_list	pelvis_rotation	pelvis_tx	pelvis_ty	pelvis_tz	hip_flexion_r	hip_adduction_r	hip_rotation_r	knee_angle_r	ankle_angle_r	subtalar_angle_r	mtp_angle_r	hip_flexion_l	hip_adduction_l	hip_rotation_l	knee_angle_l	ankle_angle_l	subtalar_angle_l	mtp_angle_l	lumbar_extension	lumbar_bending	lumbar_rotation
      1.19350000	     -5.09707408	     -3.94107918	    -11.34954411	     -0.03433812	      0.86612952	      0.37827553	    -14.71278217	      6.75278297	      6.89531457	    -10.39662293	     20.42708592	     11.53857295	      9.85084687	     34.65602596	     -9.35953661	    -13.02461173	     -3.22860136	      6.16820053	     -1.04665453	      3.13764219	     -1.28523694	      5.81470749	     13.26406024
      1.19766667	     -5.13498072	     -3.86851973	    -11.46395606	     -0.02849507	      0.86515634	      0.37822882	    -14.80670180	      6.57033777	      6.85229204	    -10.90803402	     20.44777233	     11.79750313	     10.10686695	     34.82793486	     -9.35634344	    -13.14902954	     -3.80616568	      6.26862867	     -1.01315619	      3.11317688	     -1.22017519	      5.64715259	     13.39402035
      1.20183333	     -5.07467605	     -3.77992389	    -11.53393888	     -0.02252142	      0.86436360	      0.37813290	    -15.04316908	      6.35713091	      6.79153194	    -11.33207752	     20.30912259	     11.87461543	     12.74687034	     34.88089686	     -9.30130290	    -13.31346437	     -4.40936860	      6.31258034	     -0.91765215	      3.00537070	     -1.26028284	      5.45575644	     13.44617080
      1.20600000	     -5.13061535	     -3.70125373	    -11.61933806	     -0.01653611	      0.86344323	      0.37805066	    -15.13946023	      6.18250869	      6.81514275	    -11.79937648	     20.13691294	     11.94427130	     12.80881642	     35.03152021	     -9.26693575	    -13.31365824	     -5.00888484	      6.26031075	     -1.13502634	      3.01052627	     -1.13180757	      5.28996559	     13.47136681
      1.21016667	     -5.14525612	     -3.59764735	    -11.68032065	     -0.01047518	      0.86260684	      0.37791498	    -15.26418840	      5.97456971	      6.78028919	    -12.29297040	     19.98204339	     12.02832978	     12.91944201	     35.13254893	     -9.18816988	    -13.34262605	     -5.64087974	      6.17757534	     -1.28992287	      3.02752264	     -1.05050419	      5.08633864	     13.49968497
      1.21433333	     -5.15697272	     -3.48333709	    -11.72413503	     -0.00434883	      0.86180980	      0.37774845	    -15.39007719	      5.75856771	      6.73829801	    -12.78801093	     19.77548139	     12.08601169	     13.06638124	     35.22281386	     -9.08695762	    -13.36256685	     -6.29440581	      6.03008342	     -1.45139887	      3.05612203	     -0.96140769	      4.86916223	     13.50920409
      1.21850000	     -5.13827458	     -3.34179031	    -11.73720539	      0.00186434	      0.86107582	      0.37749917	    -15.52903345	      5.50187515	      6.57996741	    -13.30789812	     19.57556694	     12.31659588	     14.69274417	     35.25785855	     -8.92065048	    -13.29166000	     -6.92703294	      5.81503400	     -1.82150472	      3.44359278	     -0.90065823	      4.62109499	     13.51816460
      1.22266667	     -5.15585299	     -3.21669533	    -11.75542129	      0.00808770	      0.86035869	      0.37729653	    -15.63691110	      5.29016536	      6.58109414	    -13.82332203	     19.24577581	     12.18248536	     14.74950504	     35.34531992	     -8.79521489	    -13.32109686	     -7.62235988	      5.51315296	     -1.94228042	      3.45591228	     -0.79114518	      4.40297821	     13.49469491
      1.22683333	     -5.17620972	     -3.05810304	    -11.74096409	      0.01437969	      0.85967294	      0.37700759	    -15.72198678	      5.04306452	      6.50038565	    -14.35928936	     18.89554888	     12.18251190	     16.54720814	     35.38550270	     -8.58480184	    -13.14357001	     -8.21177671	      5.03039029	     -2.43821368	      3.98427033	     -0.68233279	      4.12382019	     13.39746415
      1.23100000	     -5.23813552	     -2.90776082	    -11.73236537	      0.02070378	      0.85895513	      0.37674579	    -15.75192431	      4.82089060	      6.47688649	    -14.92578981	     18.50544097	     12.10453293	     16.62710594	     35.53143262	     -8.42340039	    -13.14446244	     -8.97605046	      4.72387143	     -2.56976163	      4.00826518	     -0.49995805	      3.86095549	     13.37681100
      1.23516667	     -5.30280256	     -2.73863621	    -11.70467487	      0.02707434	      0.85828356	      0.37643014	    -15.75546804	      4.58156970	      6.41150002	    -15.52838205	     18.09542941	     12.05278410	     16.77357766	     35.65447150	     -8.21730171	    -13.07148817	     -9.68720280	      4.26200089	     -2.85011042	      4.05017878	     -0.31368562	      3.57883909	     13.30936606
      1.23933333	     -5.34002684	     -2.54791641	    -11.65449919	      0.03347515	      0.85768405	      0.37602047	    -15.75552579	      4.31023855	      6.27174312	    -16.17728478	     17.62688437	     12.01985717	     20.21322466	     35.72997743	     -7.95089352	    -12.90595573	    -10.35431524	      3.71450880	     -3.39607204	      5.15679551	     -0.16197359	      3.28396474	     13.23470124
      1.24350000	     -5.40634943	     -2.36073699	    -11.58990627	      0.03993295	      0.85710247	      0.37563648	    -15.73514826	      4.06275842	      6.18491091	    -16.80797201	     17.10047235	     11.93616545	     20.24760767	     35.85973863	     -7.70392931	    -12.82271264	    -11.08911967	      3.16750821	     -3.63819418	      5.16644760	      0.03748344	      2.97561612	     13.14472986
      1.24766667	     -5.49788235	     -2.16628014	    -11.50709326	      0.04636083	      0.85651016	      0.37516107	    -15.63580604	      3.81544130	      6.05293816	    -17.53846122	     16.63689319	     11.87878548	     20.42977919	     36.01200124	     -7.41743230	    -12.59404664	    -11.79885559	      2.54609692	     -4.23646901	      5.21752899	      0.26011844	      2.69139277	     12.97734405
      1.25183333	     -5.57012546	     -1.94922684	    -11.41505359	      0.05284317	      0.85600689	      0.37465153	    -15.53594623	      3.53696433	      5.88999869	    -18.29185414	     16.06221797	     11.83890781	     20.78132596	     36.13410122	     -7.09906893	    -12.38312894	    -12.49974696	      1.94458884	     -4.74538313	      5.31157790	      0.46028463	      2.36370391	     12.84616204
      1.25600000	     -5.63900249	     -1.71577136	    -11.30564644	      0.05939017	      0.85554891	      0.37413409	    -15.43590560	      3.24404304	      5.70849227	    -19.03479009	     15.40607091	     11.76348244	     24.07092323	     36.27732716	     -6.77096295	    -12.25808583	    -13.26254265	      1.34520229	     -5.13151845	      6.19368671	      0.67795230	      1.99991040	     12.76666410
      1.26016667	     -5.74118538	     -1.50249295	    -11.18922307	      0.06589813	      0.85509229	      0.37360061	    -15.27215626	      2.99123792	      5.57543085	    -19.83993828	     14.76352467	     11.64734616	     24.14061256	     36.47633469	     -6.46562315	    -12.10658179	    -14.07420453	      0.78146657	     -5.51603729	      6.20699785	      0.91927255	      1.68026161	     12.60965241
      1.26433333	     -5.83736039	     -1.26960939	    -11.05995501	      0.07242909	      0.85468403	      0.37302301	    -15.08117603	      2.71357951	      5.39309730	    -20.69654594	     14.09111763	     11.57800641	     24.30173082	     36.66561187	     -6.12644524	    -11.91872427	    -14.88218637	      0.24359814	     -5.94980849	      6.23184425	      1.15490153	      1.33197261	     12.46327550
      1.26850000	     -5.92759235	     -1.02729922	    -10.91580235	      0.07897699	      0.85432817	      0.37240880	    -14.87226962	      2.42560604	      5.18522250	    -21.58789555	     13.37937954	     11.51739657	     24.54684475	     36.85805712	     -5.77004725	    -11.73056260	    -15.71564316	     -0.24935245	     -6.36463530	      6.26378962	      1.38679631	      0.97124235	     12.31434447
      1.27266667	     -6.01890924	     -0.78150748	    -10.76124610	      0.08553669	      0.85401365	      0.37176973	    -14.63657188	      2.13529283	      4.96529638	    -22.51880572	     12.63021058	     11.45996384	     24.87476615	     37.06145913	     -5.40774936	    -11.54443972	    -16.57994893	     -0.68599256	     -6.75786788	      6.29885273	      1.61529253	      0.60356251	     12.16712706
      1.27683333	     -6.06455574	     -0.52582218	    -10.59708837	      0.09216196	      0.85382895	      0.37114222	    -14.45083973	      1.82774039	      4.74835129	    -23.42886860	     11.75553619	     11.39382873	     25.05298704	     37.21608582	     -5.03659271	    -11.41042044	    -17.47307974	     -0.97035846	     -6.96389504	      6.31377647	      1.79509194	      0.18574865	     12.08544461
      1.28100000	     -6.12557079	     -0.25467998	    -10.41893694	      0.09873659	      0.85363263	      0.37040110	    -14.18156744	      1.49053868	      4.43005925	    -24.44754227	     10.90827782	     11.33989990	     29.65050461	     37.39286268	     -4.62509287	    -11.20190862	    -18.36021990	     -1.29915502	     -7.42687439	      6.60217812	      1.98336627	     -0.18975398	     11.93972555
      1.28516667	     -6.15554766	     -0.00893804	    -10.23891839	      0.10535064	      0.85354748	      0.36972856	    -13.96034026	      1.19019573	      4.19041080	    -25.43872743	      9.97579547	     11.25971701	     29.66800342	     37.55006474	     -4.25850448	    -11.06867831	    -19.31588161	     -1.47128402	     -7.60134464	      6.59946783	      2.13392636	     -0.58752893	     11.84404648
      1.28933333	     -6.22071745	      0.24761178	    -10.04732573	      0.11191622	      0.85342382	      0.36897729	    -13.64184508	      0.87693307	      3.89720015	    -26.53722371	      9.12273218	     11.21400644	     29.77568927	     37.74583085	     -3.86403724	    -10.86217107	    -20.26077323	     -1.66831249	     -7.94777758	      6.58300810	      2.32514806	     -0.95201620	     11.66225093
